<svg width="653" height="69" viewBox="0 0 653 69" fill="none" xmlns="http://www.w3.org/2000/svg">
<g clip-path="url(#clip0_122_228)">
<path d="M593.463 17.9608V53.4112C593.463 61.8839 600.316 68.8863 608.652 68.8863C615.514 68.8863 620.876 64.7108 622.824 58.7239L624.421 61.5427C627.273 66.2868 632.301 68.8863 637.443 68.8863C645.788 68.8863 652.413 62.3388 652.413 53.9799C652.413 51.1529 651.728 48.4478 650.123 45.9621L644.182 36.5877C648.526 33.314 651.15 28.1231 651.15 21.795C651.15 10.1623 641.786 1.12915 629.791 1.12915H610.03C599.289 1.12915 593.463 6.88863 593.463 17.9608ZM588.924 55.9051C588.924 49.4145 584.759 44.5161 579.014 43.3788C581.606 41.6729 583.187 38.8216 583.187 35.0686C583.187 31.3075 581.72 28.4643 579.014 26.7503C584.873 25.613 588.924 20.8283 588.924 14.224C588.924 6.93737 583.073 1.12915 575.975 1.12915H552.318C541.504 1.12915 535.645 6.93737 535.645 17.9852V52.0303C535.645 63.1918 541.504 68.8863 552.318 68.8863H575.975C583.073 69 588.924 63.1918 588.924 55.9051ZM517.285 53.6387V30.2677C524.88 29.9265 531.114 23.6065 531.114 15.7025C531.114 7.57099 524.538 1.12915 516.487 1.12915H485.659C477.608 1.12915 471.031 7.45726 471.031 15.7025C471.031 23.6065 477.265 29.8128 484.86 30.2677V53.6387C484.86 61.9976 492.007 68.8863 500.849 68.8863C510.253 68.8863 517.285 61.9976 517.285 53.6387ZM410.948 17.9608V53.4112C410.948 61.8839 417.802 68.8863 426.146 68.8863C433 68.8863 438.37 64.7108 440.309 58.7239L441.907 61.5427C444.767 66.2868 449.795 68.8863 454.937 68.8863C463.273 68.8863 469.899 62.3388 469.899 53.9799C469.899 51.1529 469.214 48.4478 467.617 45.9621L461.676 36.5877C466.012 33.314 468.644 28.1231 468.644 21.795C468.644 10.1623 459.272 1.12915 447.277 1.12915H427.515C416.889 1.12915 410.948 6.88863 410.948 17.9608ZM373.447 55.9782C377.317 63.9391 382.777 67.7571 389.492 67.7571C401.544 67.7571 410.076 56.8718 404.845 44.6461L390.853 12.3394C387.438 4.3785 382.321 0 373.561 0C364.923 0 359.797 4.3785 356.276 12.3394L342.285 44.6461C336.939 56.8718 345.585 67.7571 357.523 67.7571C364.124 67.7571 369.584 63.9391 373.447 55.9782ZM333.614 53.6387V30.2677C341.225 29.9265 347.467 23.6065 347.467 15.7025C347.467 7.57099 340.883 1.12915 332.815 1.12915H302.036C293.977 1.12915 287.384 7.45726 287.384 15.7025C287.384 23.6065 293.635 29.8128 301.246 30.2677V53.6387C301.246 61.9976 308.401 68.8863 317.259 68.8863C326.459 68.8863 333.614 61.9976 333.614 53.6387ZM287.384 46.9044C287.384 40.1051 283.978 35.3529 278.869 30.8201L274.664 27.0833C280.8 26.1735 284.891 22.0956 284.891 16.0924C284.891 6.0113 276.823 0 259.784 0C243.086 0 233.316 8.38333 233.316 21.6407C233.316 28.44 236.836 33.0865 241.945 37.7331L246.036 41.4699H245.922C238.311 41.4699 232.973 45.889 232.973 52.7938C232.973 62.7694 241.383 68.8863 259.327 68.8863C276.937 68.8863 287.384 60.3892 287.384 46.9044ZM229.575 52.5826C229.575 49.4389 228.654 46.4089 226.715 43.7119L219.389 33.712L226.715 23.7121C228.654 21.1289 229.575 17.977 229.575 14.8333C229.575 6.52307 222.591 0.113727 214.353 0.113727C209.553 0.113727 204.745 2.47763 201.771 6.52307L198.226 11.4621C196.849 4.83341 191.014 0 183.574 0C174.993 0 168.359 6.7424 168.359 15.0607V52.6964C168.359 61.0147 175.107 67.7571 183.574 67.7571C190.9 67.7571 196.62 63.2568 198.103 56.7418L201.314 61.234C204.289 65.5069 209.202 67.7571 214.01 67.7571C222.591 67.8708 229.575 60.901 229.575 52.5826ZM162.688 49.1383C162.688 41.9573 159.086 36.9045 151.874 33.8826C159.086 30.8526 162.688 25.9136 162.688 18.6269C162.688 7.74158 153.561 0 138.909 0C119.302 0 104.878 14.4759 104.878 33.8826C104.878 53.2894 119.302 67.7571 138.909 67.7571C153.561 67.7571 162.688 60.0155 162.688 49.1383ZM82.8271 0C73.6676 0 66.3334 7.43289 66.3334 16.2061V51.551C66.3334 60.4379 73.6676 67.7571 82.713 67.7571C91.9866 67.7571 99.2067 60.3242 99.2067 51.551V16.2061C99.3207 7.43289 91.9866 0 82.8271 0ZM61.8025 52.5826C61.8025 49.4389 60.8817 46.4089 58.9422 43.7119L51.6325 33.712L58.9422 23.7121C60.8817 21.1289 61.8025 17.977 61.8025 14.8333C61.8025 6.52307 54.8351 0.113727 46.6127 0.113727C41.8129 0.113727 37.0131 2.47763 34.0469 6.52307L30.388 11.4621C29.0189 4.83341 23.2005 0 15.7767 0C7.20394 0 0.586914 6.7424 0.586914 15.0607V52.6964C0.586914 61.0147 7.31803 67.7571 15.7767 67.7571C23.0864 67.7571 28.7908 63.2568 30.2739 56.7418L33.4765 61.234C36.4427 65.5069 41.3566 67.7571 46.1482 67.7571C54.8351 67.8708 61.8025 60.901 61.8025 52.5826Z" fill="#05CE78"/>
</g>
<defs>
<clipPath id="clip0_122_228">
<rect width="653" height="69" fill="white"/>
</clipPath>
</defs>
</svg>
