<?xml version="1.0" encoding="utf-8"?>
<!-- Generator: Adobe Illustrator 27.0.1, SVG Export Plug-In . SVG Version: 6.00 Build 0)  -->
<svg version="1.1" xmlns="http://www.w3.org/2000/svg" xmlns:xlink="http://www.w3.org/1999/xlink" x="0px" y="0px"
	 viewBox="0 0 210.63 296.59" style="enable-background:new 0 0 210.63 296.59;" xml:space="preserve">
<style type="text/css">
	.st0{display:none;}
	.st1{fill:#C72D28;}
</style>
<g id="Слой_1" class="st0">
</g>
<g id="Слой_2">
	<path class="st1" d="M121.91,161.79c0.81,1.65,1.28,3.62,2.48,4.92c16.76,17.99,33.65,35.85,50.39,53.86
		c1.45,1.56,2.07,3.9,3.79,7.3c-27.63,5.19-54.3,10.21-81.99,15.41c8.1-26.95,16.02-53.29,23.94-79.63
		C120.98,163.03,121.45,162.41,121.91,161.79z"/>
	<path class="st1" d="M125.55,160.74c20.9-0.85,41.84-1.7,63.22-2.57c-3.54,18.73-6.98,36.88-10.35,54.69
		C161.03,195.71,143.38,178.32,125.55,160.74z"/>
	<path class="st1" d="M151.6,283.63c-0.43-1.29-4.04-3.09-4.19-3.56c-18.1-8.33-29.61-20.71-46.34-31.64
		c24.93-4.38,49.2-8.64,74.09-13.02c-7.26,15.99-14.55,32.02-21.83,48.04C152.76,283.52,152.18,283.58,151.6,283.63z"/>
	<path class="st1" d="M91.12,237.47c-10.64-17.06-20.61-33.05-30.78-49.36c18.01-7.45,35.21-14.55,53.51-22.12
		C106.21,190.02,98.89,213.06,91.12,237.47z"/>
	<path class="st1" d="M145.59,286.53l-18.44-11.5c-10.95-8.83-21.47-17.32-32.06-25.86c-5.53,6.5-10.74,12.63-16.82,19.77
		c22.91,6.65,44.82,13,66.72,19.36"/>
	<path class="st1" d="M210.63,230.25c-9.37-2.97-17.6-5.58-26.1-8.27c2.91-19.12,5.77-37.9,8.68-56.98
		C198.93,186.41,204.54,207.43,210.63,230.25"/>
	<path class="st1" d="M207.06,236.33l-1.78,0.1c-1.92,0.1-3.84-0.25-5.6-1.04l-6.09-2.73c-1.48-0.99-3.39-1.31-5.09-1.99
		c-2.91-1.16-4.46-0.26-5.6,2.75c-3.68,9.79-7.59,19.49-11.52,29.18c-2.27,5.61-4.77,11.12-7.16,16.68
		c0.64,0.44,0.51,0.35,1.16,0.79l42.67-41.48C207.56,237.48,207.55,237.45,207.06,236.33z"/>
	<path class="st1" d="M56.97,188.54c0.87,4.53,1.59,8.74,2.51,12.9c1.55,7.07,2.05,6.01,4.18,14.73l1.36,6.98
		c-0.7,2.69-0.12,2.09,0.29,3.88c2.6,11.44,5.57,22.8,8.56,34.71c5.45-6.04,10.33-11.45,14.79-16.38
		C78.04,226.33,67.58,207.56,56.97,188.54"/>
	<path class="st1" d="M163.12,145.15c7.48,1.88,14.97,3.75,22.32,6.72c-19.86,1.27-39.72,2.55-59.33,3.81
		c-1.44-5.27-2.89-10.19-4.09-15.17"/>
	<path class="st1" d="M115.05,137.37c0.98,6.32,1.98,12.71,2.9,18.63c-19.91,9.19-39.26,18.13-59.68,27.56
		C77.63,167.81,96.15,152.75,115.05,137.37"/>
	<path class="st1" d="M79.95,105.03c9.88-19.65,19.75-39.3,29.83-59.35c2.16,1.71,4,3.17,5.69,4.52
		c7.92-8.44,15.72-16.75,23.67-25.24c4.64,7.14,7.04,7.4,13.07,2.42c11.26-9.29,22.56-18.53,34.2-27.38
		c-11.67,29.37-35.62,50.28-50.83,77.43c2.62-0.56,5.58-1.01,8.41-1.86c2.96-0.88,5.81-2.15,8.71-3.25c0.35,0.45,0.7,0.91,1.05,1.36
		c-9.85,10.5-19.15,21.58-29.67,31.35c-15.58,14.47-32.84,27.21-47.84,42.23c-10.08,10.1-18.02,22.51-25.92,34.54
		C43.98,191.47,39,202.07,33.7,212.4c-1.64,3.2-2.9,6.82-3.32,10.37c-0.68,5.7-2.58,10.1-7.38,13.76
		c-5.63,4.29-10.47,9.6-15.75,14.35c-1.78,1.6-3.88,2.83-5.84,4.24c-0.47-0.29-0.94-0.58-1.4-0.87c3.31-7.66,6-15.68,10.05-22.93
		c11.57-20.69,24.11-40.85,35.4-61.68c4.99-9.21,7.9-19.55,11.74-29.38c4.05-10.38,8.22-20.71,12.06-31.17
		c1.86-5.06,3.03-10.38,4.6-15.55c0.4-1.33,1.17-2.54,1.78-3.81c1.55,1.64,4.18,3.14,4.4,4.95c0.38,3.12-0.73,6.43-1.21,9.66
		C79.2,104.57,79.57,104.8,79.95,105.03z"/>
	<path class="st1" d="M123.34,294.89c-3.89-2.43-8.15-4.27-12.66-5.18c-4.58-0.92-9.25-1.42-13.91-1.72
		c-4.76-0.3-9.5-0.59-14.26-0.74c-4.66-0.15-9.32-0.3-13.96-0.74c-4.18-0.4-8.88-1.13-12.11-4.06c-1.42-1.29-2.55-2.89-3.01-4.77
		c-0.52-2.13,0.27-4.16,0.79-6.2c1.09-4.3,0.08-8.38-3.27-11.39c-3.52-3.17-8.17-4.05-12.74-4.53c-5.85-0.62-11.71-1.07-17.57-1.56
		c-5.88-0.49-11.87-1.37-17.77-0.94c-1.29,0.09-1.67,1.97-0.32,2.33c5.08,1.35,10.41,1.63,15.62,2.18
		c5.18,0.54,10.36,1.1,15.55,1.59c4.44,0.42,9.45,0.46,13.33,2.95c1.5,0.96,2.85,2.38,3.46,4.09c0.73,2.07,0.01,4.12-0.5,6.15
		c-1.1,4.36-0.36,8.36,2.6,11.8c2.85,3.31,7.14,5.06,11.36,5.76c4.63,0.77,9.39,0.83,14.07,0.92c4.69,0.09,9.38,0.1,14.06,0.12
		c10.4,0.05,21,1.57,30.97,4.58C123.46,295.63,123.67,295.09,123.34,294.89L123.34,294.89z"/>
</g>
</svg>
